<?xml version="1.0" encoding="UTF-8"?>
<svg version="1.1" xmlns="http://www.w3.org/2000/svg" width="270" height="85">
<path d="M0 0 C7.20224551 4.50307372 12.11481453 12.04767122 14.375 20.1875 C15.81930744 28.99777538 14.54516037 36.36417218 10.25 44.1875 C4.04981987 51.93772516 -2.0801549 56.93417764 -12 59 C-21.10568358 59.92119756 -29.80958427 57.75233258 -37 52 C-37.86238281 51.31164062 -37.86238281 51.31164062 -38.7421875 50.609375 C-45.62796239 44.52152253 -49.12881391 36.24790937 -49.75 27.125 C-49.3186737 18.00724133 -44.64659364 8.93988032 -37.9375 2.8125 C-34.81076947 0.41473747 -31.65365389 -1.49088209 -28 -3 C-27.0925 -3.391875 -26.185 -3.78375 -25.25 -4.1875 C-15.84272004 -6.53931999 -8.46392349 -4.51329442 0 0 Z M-20 -1 C-19.01 6.26 -18.02 13.52 -17 21 C-14.875625 20.38125 -12.75125 19.7625 -10.5625 19.125 C-9.36753906 18.77695312 -8.17257813 18.42890625 -6.94140625 18.0703125 C-3.88308969 17.3391709 -3.88308969 17.3391709 -3 15 C-5.42548388 9.03735212 -8.5803422 3.69522123 -14 0 C-16.97 -0.495 -16.97 -0.495 -20 -1 Z M-28.2109375 2.8125 C-32.15357708 7.63319469 -34 14.82182097 -34 21 C-29.05 21 -24.1 21 -19 21 C-19.99 13.74 -20.98 6.48 -22 -1 C-24.49407661 -1 -26.41638901 1.27642557 -28.2109375 2.8125 Z M-10 0 C-9.40251953 0.87011719 -9.40251953 0.87011719 -8.79296875 1.7578125 C-5.87248393 6.0639288 -3.18115554 10.274163 -1 15 C2.05763218 13.21168225 2.05763218 13.21168225 5 11 C5.33567881 8.02533969 5.33567881 8.02533969 3.609375 6.46484375 C2.99578125 5.96082031 2.3821875 5.45679688 1.75 4.9375 C1.14671875 4.43089844 0.5434375 3.92429687 -0.078125 3.40234375 C-3.648679 0.79700048 -5.46698371 0 -10 0 Z M-38.98828125 7.91015625 C-41.94166076 10.97823011 -43.35473447 14.09249438 -45 18 C-41.62902617 19.49821059 -39.79557881 20 -36 20 C-35.87882812 19.35933594 -35.75765625 18.71867187 -35.6328125 18.05859375 C-34.64320773 12.95071067 -33.51489049 7.97749731 -32 3 C-34.53990705 3 -37.1886877 6.33026173 -38.98828125 7.91015625 Z M3.4375 14.5 C1.7359375 15.7375 1.7359375 15.7375 0 17 C0.99 21.95 1.98 26.9 3 32 C4.11375 31.278125 5.2275 30.55625 6.375 29.8125 C7.31472656 29.20341797 7.31472656 29.20341797 8.2734375 28.58203125 C10.52540197 26.51857964 11.2678322 24.96353634 12 22 C11.39150317 19.27564378 11.39150317 19.27564378 10.125 16.6875 C9.73570313 15.80449219 9.34640625 14.92148437 8.9453125 14.01171875 C8.63335937 13.34785156 8.32140625 12.68398438 8 12 C6.18701995 12 4.85631649 13.46813346 3.4375 14.5 Z M-10.125 21 C-11.22070312 21.37125 -12.31640625 21.7425 -13.4453125 22.125 C-14.70988281 22.558125 -14.70988281 22.558125 -16 23 C-15.88529863 24.75070517 -15.75780972 26.50057536 -15.625 28.25 C-15.55539063 29.22453125 -15.48578125 30.1990625 -15.4140625 31.203125 C-15.1015826 34.31584202 -15.1015826 34.31584202 -13 38 C-8.71 36.68 -4.42 35.36 0 34 C0.16803599 28.45481226 0.13843222 24.21242854 -2 19 C-4.9313883 19 -7.357403 20.05783932 -10.125 21 Z M-45 21 C-46.73581353 24.47162707 -46.59308888 28.21231877 -46 32 C-42.50545893 36.11122479 -40.56096555 36.07317241 -35 37 C-35.66 32.38 -36.32 27.76 -37 23 C-39.64 22.34 -42.28 21.68 -45 21 Z M-34 23 C-33.855625 25.10375 -33.71125 27.2075 -33.5625 29.375 C-33.48128906 30.55835938 -33.40007813 31.74171875 -33.31640625 32.9609375 C-33.18915064 35.91518901 -33.18915064 35.91518901 -32 38 C-27.05 38 -22.1 38 -17 38 C-17.144375 36.246875 -17.28875 34.49375 -17.4375 32.6875 C-17.51871094 31.70136719 -17.59992187 30.71523438 -17.68359375 29.69921875 C-17.91812559 26.90624401 -17.91812559 26.90624401 -19 24 C-23.95 23.67 -28.9 23.34 -34 23 Z M11 28 C11 28.66 11 29.32 11 30 C10.4225 30.268125 9.845 30.53625 9.25 30.8125 C5.50140669 32.79092425 3.42988158 33.92248636 1.8046875 37.99609375 C1.49789062 39.13175781 1.19109375 40.26742187 0.875 41.4375 C-0.15285847 45.17091981 -1.11536651 48.6059919 -3 52 C3.03768318 49.54020315 6.76456658 44.46676681 10 39 C11.55941685 35.17942872 12.24246614 32.1219243 12 28 C11.67 28 11.34 28 11 28 Z M-44 37 C-41.71282031 45.73286791 -36.77254491 49.46495313 -29.40234375 53.99609375 C-26.71278331 55.12002389 -25.66855768 55.04153868 -23 54 C-23.7425 53.46375 -24.485 52.9275 -25.25 52.375 C-28.68083549 49.41200571 -31.16611966 46.18534158 -32.79296875 41.921875 C-34.48135837 39.23356531 -36.10060349 39.02548628 -39.125 38.25 C-40.49011719 37.88648438 -40.49011719 37.88648438 -41.8828125 37.515625 C-42.58148438 37.34546875 -43.28015625 37.1753125 -44 37 Z M-7.5625 38 C-9.686875 38.66 -11.81125 39.32 -14 40 C-13.34 44.95 -12.68 49.9 -12 55 C-7.37557099 52.6877855 -4.70922179 50.39053296 -2 46 C-0.98052183 42.69631365 -0.40033504 39.43045712 0 36 C-2.47556182 36 -5.24171641 37.27897985 -7.5625 38 Z M-31 41 C-27.86075926 46.44750599 -25.24317079 50.46888498 -20 54 C-17.03 54.495 -17.03 54.495 -14 55 C-14.66 50.38 -15.32 45.76 -16 41 C-20.95 41 -25.9 41 -31 41 Z " fill="#F0A076" transform="translate(54,17)"/>
<path d="M0 0 C1.32 0 2.64 0 4 0 C4.33 6.6 4.66 13.2 5 20 C10.51629105 14.03031516 15.80341702 8.20945671 20.52734375 1.58203125 C21.01332031 1.05996094 21.49929687 0.53789062 22 0 C22.99 0 23.98 0 25 0 C25 10.23 25 20.46 25 31 C23.35 31 21.7 31 20 31 C19.505 21.1 19.505 21.1 19 11 C16.9375 13.371875 14.875 15.74375 12.75 18.1875 C12.10772461 18.92508545 11.46544922 19.6626709 10.80371094 20.42260742 C10.28583008 21.01920166 9.76794922 21.6157959 9.234375 22.23046875 C8.67427734 22.87419434 8.11417969 23.51791992 7.53710938 24.18115234 C6.22248682 25.73673335 4.98524352 27.35714808 3.765625 28.98828125 C2.89164062 29.98408203 2.89164062 29.98408203 2 31 C1.01 31 0.02 31 -1 31 C-1.02465622 26.74585377 -1.04283899 22.49174502 -1.05493164 18.23754883 C-1.05997101 16.78929927 -1.06680253 15.34105483 -1.07543945 13.89282227 C-1.08752247 11.81525412 -1.09323211 9.73775303 -1.09765625 7.66015625 C-1.10289307 6.40855713 -1.10812988 5.15695801 -1.11352539 3.86743164 C-1 1 -1 1 0 0 Z " fill="#626262" transform="translate(117,17)"/>
<path d="M0 0 C0.33 0 0.66 0 1 0 C0.93425781 1.19496094 0.93425781 1.19496094 0.8671875 2.4140625 C0.87556292 5.85635977 1.04142762 8.68511313 2 12 C5.02612343 14.76836164 8.30029647 16.30122506 12 18 C12 18.33 12 18.66 12 19 C9.36 18.67 6.72 18.34 4 18 C6.74953905 24.64471936 9.75604828 28.36367563 16 32 C19.29172761 33.38003885 19.29172761 33.38003885 22 34 C21.50628906 33.50371094 21.01257813 33.00742188 20.50390625 32.49609375 C19.86324219 31.81675781 19.22257812 31.13742188 18.5625 30.4375 C17.92441406 29.77621094 17.28632813 29.11492187 16.62890625 28.43359375 C15 26 15 26 14 19 C19.61 19 25.22 19 31 19 C31.33 17.68 31.66 16.36 32 15 C32 15.99 32 16.98 32 18 C32.81984375 17.71125 33.6396875 17.4225 34.484375 17.125 C35.56203125 16.75375 36.6396875 16.3825 37.75 16 C38.81734375 15.62875 39.8846875 15.2575 40.984375 14.875 C44 14 44 14 48 14 C48 11.36 48 8.72 48 6 C48.33 6 48.66 6 49 6 C49 8.31 49 10.62 49 13 C49.66 13 50.32 13 51 13 C51 12.34 51 11.68 51 11 C52.65 10.67 54.3 10.34 56 10 C55.236875 10.598125 54.47375 11.19625 53.6875 11.8125 C49.79964837 15.61199137 49.10767007 20.85788935 48 26 C47.34 26 46.68 26 46 26 C46 23.03 46 20.06 46 17 C44.783125 17.495 43.56625 17.99 42.3125 18.5 C39.07513262 19.72479441 36.49900643 20.32803185 33 20 C33.495 20.99 33.495 20.99 34 22 C34.07065617 24.04055005 34.08421976 26.08334257 34.0625 28.125 C34.05347656 29.22070312 34.04445312 30.31640625 34.03515625 31.4453125 C34.02355469 32.28835937 34.01195312 33.13140625 34 34 C33.34 34 32.68 34 32 34 C31.67 29.71 31.34 25.42 31 21 C26.38 21.33 21.76 21.66 17 22 C21.62244805 28.81811087 26.07291757 33.35763919 34 36 C34 36.66 34 37.32 34 38 C23.78514282 38.72048366 16.69995699 37.73699497 8.7109375 31.09765625 C1.89865108 24.64456311 -0.76339605 18.84094024 -1.08984375 9.40234375 C-1.18101332 2.36202665 -1.18101332 2.36202665 0 0 Z " fill="#F09869" transform="translate(7,37)"/>
<path d="M0 0 C3.7904184 2.59617699 6.52638133 4.57914398 8 9 C4.64678219 8.39642079 2.74168519 7.21154466 0.125 5.0625 C-3.12239066 2.52661628 -5.95218467 1.01195383 -10 0 C-10 -0.66 -10 -1.32 -10 -2 C-13.11785113 -1.35355339 -13.11785113 -1.35355339 -14 1 C-14.66 0.34 -15.32 -0.32 -16 -1 C-18.57061311 -1.64767793 -18.57061311 -1.64767793 -21 -2 C-21.33 -1.34 -21.66 -0.68 -22 0 C-22.78375 0.45375 -23.5675 0.9075 -24.375 1.375 C-29.64348431 4.63644267 -30.78048682 8.96207361 -32.1875 14.75 C-33.0846875 18.33875 -33.0846875 18.33875 -34 22 C-29.05 22 -24.1 22 -19 22 C-19 22.33 -19 22.66 -19 23 C-24.28 23 -29.56 23 -35 23 C-35 24.98 -35 26.96 -35 29 C-35.66 28.67 -36.32 28.34 -37 28 C-37 26.35 -37 24.7 -37 23 C-39.64 22.34 -42.28 21.68 -45 21 C-45.33 21.66 -45.66 22.32 -46 23 C-46.33 22.67 -46.66 22.34 -47 22 C-47 26.62 -47 31.24 -47 36 C-50.19836973 31.2024454 -49.81378176 26.60184651 -49 21 C-45.44381033 10.88269443 -40.25024196 3.62514033 -30.875 -1.8125 C-29.92625 -2.204375 -28.9775 -2.59625 -28 -3 C-27.0925 -3.391875 -26.185 -3.78375 -25.25 -4.1875 C-15.86945061 -6.53263735 -8.42864868 -4.54578805 0 0 Z M-38.98828125 7.91015625 C-41.94166076 10.97823011 -43.35473447 14.09249438 -45 18 C-41.62902617 19.49821059 -39.79557881 20 -36 20 C-35.87882812 19.35933594 -35.75765625 18.71867187 -35.6328125 18.05859375 C-34.64320773 12.95071067 -33.51489049 7.97749731 -32 3 C-34.53990705 3 -37.1886877 6.33026173 -38.98828125 7.91015625 Z " fill="#F19B6D" transform="translate(54,17)"/>
<path d="M0 0 C2.26068049 1.41949705 3.96112058 2.67339068 5.6875 4.6875 C5.0275 6.0075 4.3675 7.3275 3.6875 8.6875 C2.82125 8.048125 1.955 7.40875 1.0625 6.75 C-3.41263068 4.01519792 -6.29889218 3.24450628 -11.4375 4.375 C-14.64215084 5.83799277 -16.26791769 6.80993971 -18.3125 9.6875 C-19.40502591 14.20327378 -19.65028312 16.56859341 -18.3125 21 C-15.66533322 24.55713036 -13.55874685 25.48439673 -9.3125 26.6875 C-4.42642363 26.52187029 -2.10744935 25.56642709 1.6875 22.6875 C3.9375 23 3.9375 23 5.6875 23.6875 C5.6875 24.6775 5.6875 25.6675 5.6875 26.6875 C0.89841914 30.97246709 -3.95189516 31.92344207 -10.3125 31.6875 C-14.92622752 30.85301711 -18.15713355 29.23104128 -21.25 25.6875 C-24.60959104 20.80082212 -24.99459452 16.46128601 -24.3125 10.6875 C-22.4968065 5.3649242 -19.1742093 2.37695621 -14.3125 -0.3125 C-9.21433724 -2.01188759 -4.92593074 -1.95178388 0 0 Z " fill="#616161" transform="translate(170.3125,17.3125)"/>
<path d="M0 0 C1.9960826 1.51814733 2.71056664 2.97338242 3.6640625 5.265625 C1.9140625 5.953125 1.9140625 5.953125 -0.3359375 6.265625 C-1.67994583 5.28001889 -3.01200778 4.27804185 -4.3359375 3.265625 C-9.19298975 1.86247657 -12.69113984 2.28728526 -17.3359375 4.265625 C-20.23010804 7.45663354 -21.22679149 9.50160294 -21.8359375 13.765625 C-21.21630134 18.10307814 -20.37077082 20.08275103 -17.3359375 23.265625 C-13.71083678 24.91721529 -10.21471665 25.74884267 -6.30078125 24.7421875 C-4.60108701 24.01323158 -2.96324808 23.14437271 -1.3359375 22.265625 C-0.3459375 21.935625 0.6440625 21.605625 1.6640625 21.265625 C2.3240625 21.595625 2.9840625 21.925625 3.6640625 22.265625 C2.68365791 24.85032802 1.75747615 26.18919565 -0.3984375 27.953125 C-5.60939303 30.28142428 -10.41216064 30.55908249 -16.0234375 29.703125 C-20.03321548 27.96303267 -22.69994975 25.74194442 -25.3359375 22.265625 C-26.87781154 17.64000288 -26.8473423 13.09632706 -26.3359375 8.265625 C-24.5234375 4.765625 -24.5234375 4.765625 -22.3359375 2.265625 C-21.8615625 1.688125 -21.3871875 1.110625 -20.8984375 0.515625 C-14.34096064 -4.73035649 -6.94674636 -3.48721132 0 0 Z " fill="#575757" transform="translate(108.3359375,18.734375)"/>
<path d="M0 0 C5.94 0 11.88 0 18 0 C18 1.32 18 2.64 18 4 C13.38 4 8.76 4 4 4 C4 6.64 4 9.28 4 12 C8.62 12 13.24 12 18 12 C17.67 13.65 17.34 15.3 17 17 C12.71 17 8.42 17 4 17 C4 20.3 4 23.6 4 27 C8.62 27 13.24 27 18 27 C18 28.32 18 29.64 18 31 C12.06 31 6.12 31 0 31 C0 20.77 0 10.54 0 0 Z " fill="#565656" transform="translate(199,17)"/>
<path d="M0 0 C0.66 0 1.32 0 2 0 C2.54527344 1.39798828 2.54527344 1.39798828 3.1015625 2.82421875 C6.11624343 10.487291 9.30273168 17.97793915 12.8984375 25.390625 C14 28 14 28 14 31 C11.73046875 30.95703125 11.73046875 30.95703125 9 30 C7.50957653 27.52392573 6.39798198 25.33073517 5.3125 22.6875 C4.72535627 21.3371979 4.1381193 19.98693634 3.55078125 18.63671875 C3.03902344 17.43660156 2.52726563 16.23648438 2 15 C1.34137848 13.66267434 0.6766726 12.32828326 0 11 C-0.21615967 11.57032959 -0.43231934 12.14065918 -0.6550293 12.72827148 C-1.64541048 15.30641915 -2.66589787 17.87157293 -3.6875 20.4375 C-4.02716797 21.33533203 -4.36683594 22.23316406 -4.71679688 23.15820312 C-5.2340332 24.43920898 -5.2340332 24.43920898 -5.76171875 25.74609375 C-6.07069092 26.53685303 -6.37966309 27.3276123 -6.69799805 28.14233398 C-8 30 -8 30 -10.63989258 30.76586914 C-11.41872803 30.84313232 -12.19756348 30.92039551 -13 31 C-12.31242875 26.70267972 -10.88320599 22.82336428 -9.25 18.8125 C-8.98485596 18.15556152 -8.71971191 17.49862305 -8.4465332 16.82177734 C-2.64295517 2.64295517 -2.64295517 2.64295517 0 0 Z " fill="#535353" transform="translate(232,17)"/>
<path d="M0 0 C1.65 0 3.3 0 5 0 C5.33 0.66 5.66 1.32 6 2 C3.525 1.505 3.525 1.505 1 1 C1.47878828 3.56257122 1.95801793 6.12505859 2.4375 8.6875 C2.57220703 9.40873047 2.70691406 10.12996094 2.84570312 10.87304688 C3.54098845 14.58688798 4.24774702 18.29716254 5 22 C5.99580078 21.65775391 5.99580078 21.65775391 7.01171875 21.30859375 C7.89472656 21.02113281 8.77773438 20.73367187 9.6875 20.4375 C10.55761719 20.14746094 11.42773438 19.85742188 12.32421875 19.55859375 C15.24631074 18.94858039 17.14400553 19.22296367 20 20 C19 22 19 22 16.85546875 22.8515625 C15.97503906 23.10679688 15.09460937 23.36203125 14.1875 23.625 C12.87845703 24.01558594 12.87845703 24.01558594 11.54296875 24.4140625 C9 25 9 25 5 25 C5.15597656 25.74765625 5.31195313 26.4953125 5.47265625 27.265625 C5.66730469 28.25046875 5.86195312 29.2353125 6.0625 30.25 C6.35833984 31.71179687 6.35833984 31.71179687 6.66015625 33.203125 C6.98586422 35.88366412 6.91563464 37.48920314 6 40 C5 41 5 41 1.18359375 41.09765625 C-0.39846682 41.09098089 -1.98051159 41.07901875 -3.5625 41.0625 C-4.36880859 41.05798828 -5.17511719 41.05347656 -6.00585938 41.04882812 C-8.00393756 41.03700518 -10.00197783 41.01906914 -12 41 C-12.33 41.66 -12.66 42.32 -13 43 C-14.32 42.34 -15.64 41.68 -17 41 C-16.34 40.01 -15.68 39.02 -15 38 C-14.5396236 34.80193335 -14.5396236 34.80193335 -14.375 31.3125 C-14.30023437 30.13300781 -14.22546875 28.95351563 -14.1484375 27.73828125 C-14.09945313 26.83464844 -14.05046875 25.93101563 -14 25 C-13.67 25 -13.34 25 -13 25 C-12.34 29.95 -11.68 34.9 -11 40 C-6.05 40 -1.1 40 4 40 C3.34 35.38 2.68 30.76 2 26 C-2.62 26 -7.24 26 -12 26 C-12.33 25.01 -12.66 24.02 -13 23 C-8.38 22.67 -3.76 22.34 1 22 C0.505 18.9990625 0.505 18.9990625 0 15.9375 C-1.87265625 3.7453125 -1.87265625 3.7453125 0 0 Z " fill="#F2A47A" transform="translate(33,15)"/>
<path d="M0 0 C5.94 0 11.88 0 18 0 C18 1.32 18 2.64 18 4 C15.69 4 13.38 4 11 4 C11 12.91 11 21.82 11 31 C9.35 31 7.7 31 6 31 C6 22.42 6 13.84 6 5 C3.03 4.505 3.03 4.505 0 4 C0 2.68 0 1.36 0 0 Z " fill="#A9A9A9" transform="translate(178,17)"/>
<path d="M0 0 C2.26068049 1.41949705 3.96112058 2.67339068 5.6875 4.6875 C5.0275 6.0075 4.3675 7.3275 3.6875 8.6875 C2.82125 8.048125 1.955 7.40875 1.0625 6.75 C-3.41263068 4.01519792 -6.29889218 3.24450628 -11.4375 4.375 C-14.49891415 5.77260211 -16.19071272 7.09420443 -18.3125 9.6875 C-18.6425 10.6775 -18.9725 11.6675 -19.3125 12.6875 C-19.9725 12.6875 -20.6325 12.6875 -21.3125 12.6875 C-21.3125 14.6675 -21.3125 16.6475 -21.3125 18.6875 C-23.3125 16.6875 -23.3125 16.6875 -23.4296875 14.48046875 C-22.93195785 9.12586107 -22.57007286 5.38486591 -18.3125 1.6875 C-12.09050204 -1.7824604 -6.71701773 -2.66145986 0 0 Z " fill="#505050" transform="translate(170.3125,17.3125)"/>
<path d="M0 0 C0.33 0 0.66 0 1 0 C0.99097656 0.58007812 0.98195313 1.16015625 0.97265625 1.7578125 C1.10605127 5.27248141 1.27134441 7.99680845 3.37890625 10.8984375 C7.26734165 14.46501136 10.59887204 16.09644871 16 16 C19.72317444 14.71422413 19.72317444 14.71422413 23 13 C23.99 12.67 24.98 12.34 26 12 C26.66 12.33 27.32 12.66 28 13 C27.01959541 15.58470302 26.09341365 16.92357065 23.9375 18.6875 C18.72654447 21.01579928 13.92377686 21.29345749 8.3125 20.4375 C4.18342667 18.64563799 1.15873518 17.063048 -1 13 C-1.5441095 8.94533784 -1.49867727 5.05885422 -1 1 C-0.67 0.67 -0.34 0.34 0 0 Z " fill="#737373" transform="translate(84,28)"/>
<path d="M0 0 C0.99 0 1.98 0 3 0 C3 3.63 3 7.26 3 11 C4.32 11 5.64 11 7 11 C7 7.37 7 3.74 7 0 C7.99 0 8.98 0 10 0 C10.0270043 1.45823212 10.04639787 2.91660675 10.0625 4.375 C10.07410156 5.18710938 10.08570312 5.99921875 10.09765625 6.8359375 C10 9 10 9 9 11 C9.66 11 10.32 11 11 11 C11.33 8.36 11.66 5.72 12 3 C12.66 3 13.32 3 14 3 C14.33 4.32 14.66 5.64 15 7 C15.928125 6.01 15.928125 6.01 16.875 5 C19 3 19 3 21 3 C21 6.3 21 9.6 21 13 C20.34 13 19.68 13 19 13 C18.67 11.35 18.34 9.7 18 8 C17.51789063 8.5053125 17.03578125 9.010625 16.5390625 9.53125 C15.90742187 10.1809375 15.27578125 10.830625 14.625 11.5 C13.99851562 12.1496875 13.37203125 12.799375 12.7265625 13.46875 C11 15 11 15 9 15 C9 14.34 9 13.68 9 13 C7.700625 13.020625 6.40125 13.04125 5.0625 13.0625 C3.70834367 13.08399454 2.35243917 13.07148199 1 13 C0 12 0 12 -0.09765625 9.27734375 C-0.08605469 8.17519531 -0.07445313 7.07304688 -0.0625 5.9375 C-0.05347656 4.83277344 -0.04445313 3.72804688 -0.03515625 2.58984375 C-0.02355469 1.73519531 -0.01195313 0.88054688 0 0 Z " fill="#C3C3C3" transform="translate(82,63)"/>
<path d="M0 0 C0.66 0 1.32 0 2 0 C2 21.12 2 42.24 2 64 C1.34 64 0.68 64 0 64 C0 42.88 0 21.76 0 0 Z " fill="#4E4E4E" transform="translate(72,14)"/>
<path d="M0 0 C1.65 0 3.3 0 5 0 C5.33 1.65 5.66 3.3 6 5 C6.33 4.67 6.66 4.34 7 4 C7 2.68 7 1.36 7 0 C7.99 0 8.98 0 10 0 C10 0.99 10 1.98 10 3 C11.32 3.33 12.64 3.66 14 4 C14.33 2.68 14.66 1.36 15 0 C15.66 0 16.32 0 17 0 C17 3.3 17 6.6 17 10 C11.33333333 10 5.66666667 10 0 10 C0 6.7 0 3.4 0 0 Z M2 2 C2 2.66 2 3.32 2 4 C2.66 4 3.32 4 4 4 C4 3.34 4 2.68 4 2 C3.34 2 2.68 2 2 2 Z M2 6 C2 6.66 2 7.32 2 8 C2.66 8 3.32 8 4 8 C4 7.34 4 6.68 4 6 C3.34 6 2.68 6 2 6 Z M10 6 C10 6.66 10 7.32 10 8 C10.66 8 11.32 8 12 8 C12 7.34 12 6.68 12 6 C11.34 6 10.68 6 10 6 Z " fill="#BBBBBB" transform="translate(144,66)"/>
<path d="M0 0 C0.66 0 1.32 0 2 0 C2.33 0.99 2.66 1.98 3 3 C4.175625 3.185625 4.175625 3.185625 5.375 3.375 C8 4 8 4 10 6 C9.625 9.125 9.625 9.125 9 12 C7.02 12.33 5.04 12.66 3 13 C2.67 13.99 2.34 14.98 2 16 C1.34 16 0.68 16 0 16 C0 15.01 0 14.02 0 13 C-0.78375 13.04125 -1.5675 13.0825 -2.375 13.125 C-5 13 -5 13 -7 11 C-7.25 8 -7.25 8 -7 5 C-5 3 -5 3 -2.375 2.875 C-1.59125 2.91625 -0.8075 2.9575 0 3 C0 2.01 0 1.02 0 0 Z M-4 5 C-4.33 6.65 -4.66 8.3 -5 10 C-3.68 10.33 -2.36 10.66 -1 11 C-0.67 9.35 -0.34 7.7 0 6 C-1.32 5.67 -2.64 5.34 -4 5 Z M3 5 C2.67 6.65 2.34 8.3 2 10 C3.32 10.33 4.64 10.66 6 11 C6.66 9.68 7.32 8.36 8 7 C7.34 6.34 6.68 5.68 6 5 C5.01 5 4.02 5 3 5 Z " fill="#B6B6B6" transform="translate(111,63)"/>
<path d="M0 0 C0.58136719 0.21785156 1.16273437 0.43570312 1.76171875 0.66015625 C0.74851562 1.51287109 0.74851562 1.51287109 -0.28515625 2.3828125 C-5.38255364 6.79515504 -9.36828589 10.52880253 -12.23828125 16.66015625 C-9.59828125 17.65015625 -6.95828125 18.64015625 -4.23828125 19.66015625 C-7.23828125 21.66015625 -7.23828125 21.66015625 -10.42578125 21.28515625 C-11.35390625 21.07890625 -12.28203125 20.87265625 -13.23828125 20.66015625 C-13.56828125 21.32015625 -13.89828125 21.98015625 -14.23828125 22.66015625 C-14.56828125 22.33015625 -14.89828125 22.00015625 -15.23828125 21.66015625 C-15.23828125 26.28015625 -15.23828125 30.90015625 -15.23828125 35.66015625 C-18.43665098 30.86260165 -18.05206301 26.26200276 -17.23828125 20.66015625 C-14.84503585 13.85140945 -8.87120479 -1.34693685 0 0 Z " fill="#F2A881" transform="translate(22.23828125,17.33984375)"/>
<path d="M0 0 C0.99 0 1.98 0 3 0 C3 10.23 3 20.46 3 31 C1.35 31 -0.3 31 -2 31 C-2.33 23.41 -2.66 15.82 -3 8 C-2.34 8 -1.68 8 -1 8 C-1 15.26 -1 22.52 -1 30 C-0.34 30 0.32 30 1 30 C0.67 21.42 0.34 12.84 0 4 C-1.98 4.99 -1.98 4.99 -4 6 C-2.1875 3 -2.1875 3 0 0 Z " fill="#BFBFBF" transform="translate(139,17)"/>
<path d="M0 0 C0.66 0.99 1.32 1.98 2 3 C1.125 5.6875 1.125 5.6875 0 8 C0.99 8.99 1.98 9.98 3 11 C1.58521865 11.64995297 0.16808513 12.29478722 -1.25 12.9375 C-2.03890625 13.29714844 -2.8278125 13.65679687 -3.640625 14.02734375 C-7.46156722 15.60253351 -10.61989182 16.12323689 -14.75 16.0625 C-15.54921875 16.05347656 -16.3484375 16.04445313 -17.171875 16.03515625 C-17.77515625 16.02355469 -18.3784375 16.01195313 -19 16 C-19 15.67 -19 15.34 -19 15 C-16.36 15 -13.72 15 -11 15 C-11 14.34 -11 13.68 -11 13 C-11.99 12.67 -12.98 12.34 -14 12 C-13.34 11.67 -12.68 11.34 -12 11 C-11.59270772 8.67843403 -11.25561323 6.3431213 -11 4 C-10.67 4 -10.34 4 -10 4 C-10 6.64 -10 9.28 -10 12 C-5.40493818 8.44984265 -2.23545746 5.52289491 0 0 Z " fill="#F09768" transform="translate(52,60)"/>
<path d="M0 0 C5.28 0 10.56 0 16 0 C16 0.66 16 1.32 16 2 C13.69 2 11.38 2 9 2 C9 10.91 9 19.82 9 29 C8.34 29 7.68 29 7 29 C6.67 20.42 6.34 11.84 6 3 C3.03 2.505 3.03 2.505 0 2 C0 1.34 0 0.68 0 0 Z " fill="#000000" transform="translate(179,18)"/>
<path d="M0 0 C2.68784572 1.01716514 3.85453932 1.9674583 6 4 C6 5.32 6 6.64 6 8 C3.03824877 7.38722388 1.61941217 6.74627478 -1 5 C-3.73872955 4.54227937 -3.73872955 4.54227937 -6.6875 4.375 C-8.17830078 4.26285156 -8.17830078 4.26285156 -9.69921875 4.1484375 C-10.45847656 4.09945313 -11.21773438 4.05046875 -12 4 C-12 3.01 -12 2.02 -12 1 C-8.28921861 -0.8553907 -4.04967925 -0.45202842 0 0 Z " fill="#2C2C2C" transform="translate(105,17)"/>
<path d="M0 0 C0 8.91 0 17.82 0 27 C-0.66 27 -1.32 27 -2 27 C-2 19.74 -2 12.48 -2 5 C-2.66 5 -3.32 5 -4 5 C-4.33 6.32 -4.66 7.64 -5 9 C-5.99 9 -6.98 9 -8 9 C-8 6 -8 6 -6 3 C-1.44444444 0 -1.44444444 0 0 0 Z " fill="#101010" transform="translate(140,20)"/>
<path d="M0 0 C0.33 0 0.66 0 1 0 C0.99097656 0.58007812 0.98195313 1.16015625 0.97265625 1.7578125 C1.13593742 6.71993372 1.13593742 6.71993372 3.625 10.86328125 C4.88499476 11.887027 6.1778085 12.87205389 7.50390625 13.80859375 C7.99761719 14.20175781 8.49132812 14.59492187 9 15 C9 15.66 9 16.32 9 17 C9.99 17.33 10.98 17.66 12 18 C11 19 11 19 8.3125 19.4375 C4.37962507 18.91806369 2.78179299 18.0034441 0.12890625 15.12890625 C-2.16707217 10.79911996 -1.58305914 5.74565853 -1 1 C-0.67 0.67 -0.34 0.34 0 0 Z " fill="#2F2F2F" transform="translate(84,28)"/>
<path d="M0 0 C0.33 0 0.66 0 1 0 C1.66 4.95 2.32 9.9 3 15 C7.95 15 12.9 15 18 15 C18.33 12.03 18.66 9.06 19 6 C19.33 6 19.66 6 20 6 C20.33 8.97 20.66 11.94 21 15 C17.69005287 16.65497356 14.00877 16.10084335 10.375 16.0625 C9.57320312 16.05798828 8.77140625 16.05347656 7.9453125 16.04882812 C5.96350994 16.03703168 3.98174567 16.01909605 2 16 C1.67 16.66 1.34 17.32 1 18 C-0.32 17.34 -1.64 16.68 -3 16 C-2.34 15.01 -1.68 14.02 -1 13 C-0.5396236 9.80193335 -0.5396236 9.80193335 -0.375 6.3125 C-0.30023437 5.13300781 -0.22546875 3.95351563 -0.1484375 2.73828125 C-0.09945313 1.83464844 -0.05046875 0.93101563 0 0 Z " fill="#F4B999" transform="translate(19,40)"/>
<path d="M0 0 C2 2 2 2 2.25 5 C2 8 2 8 0 10 C-3.625 9.625 -3.625 9.625 -7 9 C-8.33157895 3.55263158 -8.33157895 3.55263158 -6.875 1.125 C-4.40522151 -0.3568671 -2.83386167 -0.3633156 0 0 Z M-5 6 C-4.67 6.66 -4.34 7.32 -4 8 C-2.68 7.67 -1.36 7.34 0 7 C0 6.67 0 6.34 0 6 C-1.65 6 -3.3 6 -5 6 Z " fill="#B5B5B5" transform="translate(170,66)"/>
<path d="M0 0 C2.5625 0.3125 2.5625 0.3125 4.4375 1.5 C5.5625 3.3125 5.5625 3.3125 5.375 5.875 C4.5625 8.3125 4.5625 8.3125 2.5625 10.3125 C0.0625 10.5625 0.0625 10.5625 -2.4375 10.3125 C-4.4375 8.3125 -4.4375 8.3125 -4.6875 5.3125 C-4.37675292 1.58353509 -3.7821044 0.48488518 0 0 Z M-2.4375 6.3125 C-2.1075 6.9725 -1.7775 7.6325 -1.4375 8.3125 C-0.1175 7.9825 1.2025 7.6525 2.5625 7.3125 C2.5625 6.9825 2.5625 6.6525 2.5625 6.3125 C0.9125 6.3125 -0.7375 6.3125 -2.4375 6.3125 Z " fill="#B5B5B5" transform="translate(187.4375,65.6875)"/>
<path d="M0 0 C0.33 0.99 0.66 1.98 1 3 C0.67 3.66 0.34 4.32 0 5 C1.32 4.01 2.64 3.02 4 2 C3.39644592 5.85025879 2.23227397 8.86101159 0.4375 12.3125 C-0.01753906 13.19550781 -0.47257813 14.07851563 -0.94140625 14.98828125 C-1.46541016 15.98408203 -1.46541016 15.98408203 -2 17 C-3.32 17 -4.64 17 -6 17 C-5.34496718 12.94180817 -4.05440879 9.46028718 -2.4375 5.6875 C-1.75494141 4.08455078 -1.75494141 4.08455078 -1.05859375 2.44921875 C-0.53458984 1.23685547 -0.53458984 1.23685547 0 0 Z " fill="#303030" transform="translate(225,31)"/>
<path d="M0 0 C6.625 -0.25 6.625 -0.25 10 2 C9.67 4.31 9.34 6.62 9 9 C7.02 9.33 5.04 9.66 3 10 C2.67 10.99 2.34 11.98 2 13 C1.34 13 0.68 13 0 13 C0 8.71 0 4.42 0 0 Z M3 2 C2.67 3.65 2.34 5.3 2 7 C5.04913228 8.01111093 5.04913228 8.01111093 8 7 C7.67 5.35 7.34 3.7 7 2 C5.68 2 4.36 2 3 2 Z " fill="#B5B5B5" transform="translate(122,66)"/>
<path d="M0 0 C0 4 0 4 -1.9375 6.0625 C-2.618125 6.701875 -3.29875 7.34125 -4 8 C-4.33 8.99 -4.66 9.98 -5 11 C-5.66 11 -6.32 11 -7 11 C-7 12.98 -7 14.96 -7 17 C-9 15 -9 15 -9.1171875 12.79296875 C-7.92803598 0 -7.92803598 0 0 0 Z " fill="#2D2D2D" transform="translate(156,19)"/>
<path d="M0 0 C0.66 0 1.32 0 2 0 C2.33 1.32 2.66 2.64 3 4 C3.61875 3.34 4.2375 2.68 4.875 2 C7 0 7 0 9 0 C9 3.3 9 6.6 9 10 C8.01 10 7.02 10 6 10 C5.67 8.68 5.34 7.36 5 6 C3.35 7.32 1.7 8.64 0 10 C0 6.7 0 3.4 0 0 Z " fill="#BFBFBF" transform="translate(248,66)"/>
<path d="M0 0 C1 1 1 1 1.25 3.9375 C1.1675 4.948125 1.085 5.95875 1 7 C-2 9 -2 9 -5.1875 8.625 C-6.5796875 8.315625 -6.5796875 8.315625 -8 8 C-9.32278481 2.58860759 -9.32278481 2.58860759 -7.9375 0.0625 C-5.06369928 -1.51345523 -3.08587291 -0.80501033 0 0 Z M-5 1 C-5.66 2.32 -6.32 3.64 -7 5 C-6.34 5.66 -5.68 6.32 -5 7 C-2.89179203 6.6814823 -2.89179203 6.6814823 -1 6 C-1.33 4.35 -1.66 2.7 -2 1 C-2.99 1 -3.98 1 -5 1 Z " fill="#B1B1B1" transform="translate(220,67)"/>
<path d="M0 0 C0.928125 0.20625 1.85625 0.4125 2.8125 0.625 C4.13528481 6.03639241 4.13528481 6.03639241 2.75 8.5625 C-0.12380072 10.13845523 -2.10162709 9.43001033 -5.1875 8.625 C-6.1875 7.625 -6.1875 7.625 -6.4375 4.6875 C-6.355 3.676875 -6.2725 2.66625 -6.1875 1.625 C-3.1875 -0.375 -3.1875 -0.375 0 0 Z M-3.1875 1.625 C-3.5175 3.275 -3.8475 4.925 -4.1875 6.625 C-2.8675 6.955 -1.5475 7.285 -0.1875 7.625 C0.4725 6.305 1.1325 4.985 1.8125 3.625 C1.1525 2.965 0.4925 2.305 -0.1875 1.625 C-1.1775 1.625 -2.1675 1.625 -3.1875 1.625 Z " fill="#BCBCBC" transform="translate(237.1875,66.375)"/>
<path d="M0 0 C2.5625 0.3125 2.5625 0.3125 4.4375 1.5 C5.5625 3.3125 5.5625 3.3125 5.375 5.875 C4.5625 8.3125 4.5625 8.3125 2.5625 10.3125 C0.0625 10.5625 0.0625 10.5625 -2.4375 10.3125 C-4.4375 8.3125 -4.4375 8.3125 -4.6875 5.3125 C-4.37675292 1.58353509 -3.7821044 0.48488518 0 0 Z M-1.4375 2.3125 C-1.7675 3.9625 -2.0975 5.6125 -2.4375 7.3125 C-1.1175 7.6425 0.2025 7.9725 1.5625 8.3125 C2.2225 6.9925 2.8825 5.6725 3.5625 4.3125 C2.9025 3.6525 2.2425 2.9925 1.5625 2.3125 C0.5725 2.3125 -0.4175 2.3125 -1.4375 2.3125 Z " fill="#B4B4B4" transform="translate(137.4375,65.6875)"/>
<path d="M0 0 C0.66 0 1.32 0 2 0 C2 0.99 2 1.98 2 3 C3.32 3 4.64 3 6 3 C6 2.01 6 1.02 6 0 C6.66 0 7.32 0 8 0 C8 3.3 8 6.6 8 10 C7.34 10 6.68 10 6 10 C6 8.68 6 7.36 6 6 C4.68 6 3.36 6 2 6 C2 7.32 2 8.64 2 10 C1.34 10 0.68 10 0 10 C0 6.7 0 3.4 0 0 Z " fill="#CDCDCD" transform="translate(202,66)"/>
<path d="M0 0 C0.66 0 1.32 0 2 0 C2.33 1.65 2.66 3.3 3 5 C3.61875 4.175 4.2375 3.35 4.875 2.5 C5.57625 1.675 6.2775 0.85 7 0 C7.66 0 8.32 0 9 0 C9 3.3 9 6.6 9 10 C8.34 10 7.68 10 7 10 C6.67 8.35 6.34 6.7 6 5 C3.03 7.475 3.03 7.475 0 10 C0 6.7 0 3.4 0 0 Z " fill="#B5B5B5" transform="translate(258,66)"/>
<path d="M0 0 C0.33 0 0.66 0 1 0 C1 2.64 1 5.28 1 8 C5.95 8 10.9 8 16 8 C16 8.33 16 8.66 16 9 C10.72 9 5.44 9 0 9 C0 10.98 0 12.96 0 15 C-0.66 14.67 -1.32 14.34 -2 14 C-2 12.35 -2 10.7 -2 9 C-2.66 9 -3.32 9 -4 9 C-4 8.34 -4 7.68 -4 7 C-3.01 7 -2.02 7 -1 7 C-0.67 4.69 -0.34 2.38 0 0 Z " fill="#EE8247" transform="translate(19,31)"/>
<path d="M0 0 C0.33 0 0.66 0 1 0 C1.33 3.96 1.66 7.92 2 12 C6.62 12 11.24 12 16 12 C16 12.66 16 13.32 16 14 C10.39 14 4.78 14 -1 14 C-0.67 9.38 -0.34 4.76 0 0 Z " fill="#000000" transform="translate(200,33)"/>
<path d="M0 0 C0.33 0 0.66 0 1 0 C1 2.31 1 4.62 1 7 C1.66 7 2.32 7 3 7 C3 6.34 3 5.68 3 5 C4.65 4.67 6.3 4.34 8 4 C7.236875 4.598125 6.47375 5.19625 5.6875 5.8125 C1.79964837 9.61199137 1.10767007 14.85788935 0 20 C-0.66 20 -1.32 20 -2 20 C-1.34 13.4 -0.68 6.8 0 0 Z " fill="#EF8852" transform="translate(55,43)"/>
<path d="M0 0 C0.5775 0.37125 1.155 0.7425 1.75 1.125 C4 2.29166667 4 2.29166667 6.25 1.125 C6.8275 0.75375 7.405 0.3825 8 0 C7.62875 0.721875 7.2575 1.44375 6.875 2.1875 C5.81025859 5.60988311 6.39660152 6.88228073 8 10 C7.01 9.67 6.02 9.34 5 9 C5 8.34 5 7.68 5 7 C4.01 7.99 3.02 8.98 2 10 C1.01 9.67 0.02 9.34 -1 9 C-0.195625 7.88625 -0.195625 7.88625 0.625 6.75 C1.07875 5.8425 1.5325 4.935 2 4 C1.30859649 1.69712207 1.30859649 1.69712207 0 0 Z " fill="#BABABA" transform="translate(193,66)"/>
<path d="M0 0 C0.66 0 1.32 0 2 0 C2 4.80650713 0.35073249 7.05474055 -2.875 10.375 C-6.55430712 14 -6.55430712 14 -10 14 C-8.43586569 10.16076124 -5.90063768 7.90063768 -3 5 C-2.443125 4.071875 -1.88625 3.14375 -1.3125 2.1875 C-0.879375 1.465625 -0.44625 0.74375 0 0 Z " fill="#F0996B" transform="translate(63,56)"/>
<path d="M0 0 C0.66 0.66 1.32 1.32 2 2 C-0.31 2 -2.62 2 -5 2 C-3.02 2.66 -1.04 3.32 1 4 C1 4.33 1 4.66 1 5 C-4.94 5.495 -4.94 5.495 -11 6 C-11 5.01 -11 4.02 -11 3 C-11.66 2.67 -12.32 2.34 -13 2 C-8.49016424 -0.25491788 -4.94576735 -0.32431261 0 0 Z " fill="#6C6C6C" transform="translate(167,16)"/>
<path d="M0 0 C-0.33 2.64 -0.66 5.28 -1 8 C-1.5534764 5.92446352 -2 4.15634036 -2 2 C-2.54269531 2.22816406 -3.08539063 2.45632812 -3.64453125 2.69140625 C-4.71767578 3.12259766 -4.71767578 3.12259766 -5.8125 3.5625 C-6.52019531 3.85253906 -7.22789063 4.14257812 -7.95703125 4.44140625 C-10 5 -10 5 -13 4 C-13.33 3.34 -13.66 2.68 -14 2 C-12.42085985 1.46658816 -10.83645613 0.94874237 -9.25 0.4375 C-8.36828125 0.14746094 -7.4865625 -0.14257812 -6.578125 -0.44140625 C-3.92165684 -1.01697435 -2.52968894 -0.89248371 0 0 Z " fill="#F2B08B" transform="translate(55,52)"/>
<path d="M0 0 C0.33 0.66 0.66 1.32 1 2 C1.66 2 2.32 2 3 2 C4.51708428 11.41002278 4.51708428 11.41002278 2 16 C1.34 15.34 0.68 14.68 0 14 C0.0234375 11.8359375 0.0234375 11.8359375 0.375 9.375 C0.48585938 8.55773438 0.59671875 7.74046875 0.7109375 6.8984375 C0.80632812 6.27195312 0.90171875 5.64546875 1 5 C-0.98 5.33 -2.96 5.66 -5 6 C-3.35 4.02 -1.7 2.04 0 0 Z " fill="#F1A67E" transform="translate(64,42)"/>
<path d="M0 0 C0.66 0 1.32 0 2 0 C2.67154933 1.28913487 3.33708859 2.58140204 4 3.875 C4.37125 4.59429687 4.7425 5.31359375 5.125 6.0546875 C6 8 6 8 6 10 C5.01 10 4.02 10 3 10 C2.67 8.35 2.34 6.7 2 5 C1.34 5 0.68 5 0 5 C-0.33 6.65 -0.66 8.3 -1 10 C-1.99 10 -2.98 10 -4 10 C-2.66666667 6.66666667 -1.33333333 3.33333333 0 0 Z " fill="#BEBEBE" transform="translate(225,66)"/>
<path d="M0 0 C0.99 0 1.98 0 3 0 C3 3.63 3 7.26 3 11 C4.65 11 6.3 11 8 11 C8 11.33 8 11.66 8 12 C5.36 12 2.72 12 0 12 C0 8.04 0 4.08 0 0 Z " fill="#B1B1B1" transform="translate(82,63)"/>
<path d="M0 0 C1.65 0 3.3 0 5 0 C5.33 0.66 5.66 1.32 6 2 C4.35 1.67 2.7 1.34 1 1 C1.33 2.19625 1.66 3.3925 2 4.625 C2.89265823 8.15791497 3.18296045 11.34079109 3 15 C2.01 15.33 1.02 15.66 0 16 C-0.19441368 13.7089095 -0.38033135 11.41709663 -0.5625 9.125 C-0.71912109 7.21074219 -0.71912109 7.21074219 -0.87890625 5.2578125 C-1 2 -1 2 0 0 Z " fill="#F3B492" transform="translate(33,15)"/>
<path d="M0 0 C0.99 0 1.98 0 3 0 C3 9.57 3 19.14 3 29 C2.67 29 2.34 29 2 29 C1.67 20.42 1.34 11.84 1 3 C-0.98 3.99 -0.98 3.99 -3 5 C-1.6875 2.5 -1.6875 2.5 0 0 Z " fill="#696969" transform="translate(138,18)"/>
<path d="M0 0 C1.65 0 3.3 0 5 0 C3.02 0.99 3.02 0.99 1 2 C1.33 2.66 1.66 3.32 2 4 C2.07065617 6.04055005 2.08421976 8.08334257 2.0625 10.125 C2.05347656 11.22070312 2.04445312 12.31640625 2.03515625 13.4453125 C2.02355469 14.28835937 2.01195312 15.13140625 2 16 C1.34 16 0.68 16 0 16 C-0.19504458 13.89651926 -0.38078496 11.79217415 -0.5625 9.6875 C-0.66691406 8.51574219 -0.77132812 7.34398437 -0.87890625 6.13671875 C-1 3 -1 3 0 0 Z " fill="#F09564" transform="translate(39,55)"/>
<path d="M0 0 C0.33 0.99 0.66 1.98 1 3 C-1.25 6.1875 -1.25 6.1875 -4 9 C-6 9 -8 9 -10 9 C-8.90344712 7.68113228 -7.79746577 6.37009943 -6.6875 5.0625 C-6.07261719 4.33160156 -5.45773438 3.60070312 -4.82421875 2.84765625 C-3 1 -3 1 0 0 Z " fill="#525252" transform="translate(133,27)"/>
<path d="M0 0 C4.67692308 1.47692308 4.67692308 1.47692308 6.3125 4.125 C6.539375 4.74375 6.76625 5.3625 7 6 C5.25 6.6875 5.25 6.6875 3 7 C1.64082143 6.03542166 0.30915279 5.03145371 -1 4 C-3.64934822 3.28566879 -3.64934822 3.28566879 -6 3 C-6 2.67 -6 2.34 -6 2 C-4.02 2 -2.04 2 0 2 C0 1.34 0 0.68 0 0 Z " fill="#5B5B5B" transform="translate(105,18)"/>
<path d="M0 0 C1.32 0.33 2.64 0.66 4 1 C2.63016497 4.16115776 2.0109362 4.9927092 -1 7 C-4.1875 7.125 -4.1875 7.125 -7 7 C-7 6.34 -7 5.68 -7 5 C-5.824375 4.87625 -5.824375 4.87625 -4.625 4.75 C-1.85250896 4.27193661 -1.85250896 4.27193661 -0.6875 1.9375 C-0.460625 1.298125 -0.23375 0.65875 0 0 Z " fill="#414141" transform="translate(108,40)"/>
<path d="M0 0 C2.18742014 3.2811302 2.54442806 5.33084356 3.125 9.1875 C3.29257812 10.27417969 3.46015625 11.36085938 3.6328125 12.48046875 C3.75398438 13.31191406 3.87515625 14.14335938 4 15 C2.68 15.33 1.36 15.66 0 16 C-0.19441368 13.7089095 -0.38033135 11.41709663 -0.5625 9.125 C-0.71912109 7.21074219 -0.71912109 7.21074219 -0.87890625 5.2578125 C-1 2 -1 2 0 0 Z " fill="#F4B997" transform="translate(54,35)"/>
<path d="M0 0 C0 0.33 0 0.66 0 1 C-2.97 1.66 -5.94 2.32 -9 3 C-9 3.99 -9 4.98 -9 6 C-10.98 6.99 -10.98 6.99 -13 8 C-13.33 7.34 -13.66 6.68 -14 6 C-14.99 6 -15.98 6 -17 6 C-11.79516879 0.21685421 -7.44167705 -0.25226024 0 0 Z " fill="#717171" transform="translate(102,16)"/>
<path d="M0 0 C0.33 0 0.66 0 1 0 C1.06058594 0.83144531 1.12117187 1.66289063 1.18359375 2.51953125 C1.26738281 3.60621094 1.35117188 4.69289063 1.4375 5.8125 C1.55931641 7.43091797 1.55931641 7.43091797 1.68359375 9.08203125 C1.90212461 12.05989905 1.90212461 12.05989905 3 15 C2.01 15.33 1.02 15.66 0 16 C-0.90953762 12.89602241 -1.13464149 10.10489778 -1.125 6.875 C-1.12757813 6.00617187 -1.13015625 5.13734375 -1.1328125 4.2421875 C-1 2 -1 2 0 0 Z " fill="#EF8349" transform="translate(7,37)"/>
<path d="M0 0 C2.31 0 4.62 0 7 0 C7 0.66 7 1.32 7 2 C6.01 2 5.02 2 4 2 C4 4.64 4 7.28 4 10 C3.34 10 2.68 10 2 10 C2 7.36 2 4.72 2 2 C1.34 2 0.68 2 0 2 C0 1.34 0 0.68 0 0 Z " fill="#C2C2C2" transform="translate(176,66)"/>
<path d="M0 0 C0.33 0 0.66 0 1 0 C1 2.64 1 5.28 1 8 C2.32 8.66 3.64 9.32 5 10 C1.93753253 11.78409802 -0.22079273 12.22880021 -3.75 12.125 C-4.54921875 12.10695313 -5.3484375 12.08890625 -6.171875 12.0703125 C-6.77515625 12.04710938 -7.3784375 12.02390625 -8 12 C-8 11.67 -8 11.34 -8 11 C-5.36 11 -2.72 11 0 11 C0 10.34 0 9.68 0 9 C-0.99 8.67 -1.98 8.34 -3 8 C-2.34 7.67 -1.68 7.34 -1 7 C-0.59270772 4.67843403 -0.25561323 2.3431213 0 0 Z " fill="#F4C0A3" transform="translate(41,64)"/>
<path d="M0 0 C0.66 0 1.32 0 2 0 C2.98248524 4.0527516 3.08159574 7.83861737 3 12 C2.34 12 1.68 12 1 12 C1 10.68 1 9.36 1 8 C0.34 8 -0.32 8 -1 8 C-0.67 5.36 -0.34 2.72 0 0 Z " fill="#F09563" transform="translate(66,36)"/>
<path d="M0 0 C0.66 0.66 1.32 1.32 2 2 C1.7578125 4.6015625 1.7578125 4.6015625 1.125 7.625 C0.81949219 9.12933594 0.81949219 9.12933594 0.5078125 10.6640625 C0.34023438 11.43492188 0.17265625 12.20578125 0 13 C-0.99 12.34 -1.98 11.68 -3 11 C-2.69078116 9.54096742 -2.37751201 8.08279278 -2.0625 6.625 C-1.88847656 5.81289063 -1.71445312 5.00078125 -1.53515625 4.1640625 C-1 2 -1 2 0 0 Z " fill="#F3B390" transform="translate(21,22)"/>
<path d="M0 0 C2.91488977 2.6234008 4.88503898 5.71816394 7 9 C6.01 9.33 5.02 9.66 4 10 C0.38860104 6.12435233 0.38860104 6.12435233 -1 4 C-0.8125 1.625 -0.8125 1.625 0 0 Z " fill="#F0A179" transform="translate(23,59)"/>
<path d="M0 0 C0.598125 0.226875 1.19625 0.45375 1.8125 0.6875 C0.4925 1.6775 -0.8275 2.6675 -2.1875 3.6875 C-1.8575 5.0075 -1.5275 6.3275 -1.1875 7.6875 C-2.1775 8.0175 -3.1675 8.3475 -4.1875 8.6875 C-4.875 5.875 -4.875 5.875 -5.1875 2.6875 C-3.62441875 0.13720955 -3.00012909 -0.42858987 0 0 Z " fill="#B9B9B9" transform="translate(216.1875,66.3125)"/>
<path d="M0 0 C1.65 0 3.3 0 5 0 C5 0.66 5 1.32 5 2 C4.01 2 3.02 2 2 2 C2 4.64 2 7.28 2 10 C1.34 10 0.68 10 0 10 C0 6.7 0 3.4 0 0 Z " fill="#BDBDBD" transform="translate(242,66)"/>
<path d="M0 0 C0.66 0 1.32 0 2 0 C3.31501363 2.16590481 4.03022952 3.50121292 3.875 6.0625 C3 8 3 8 -1 11 C-0.67 7.37 -0.34 3.74 0 0 Z " fill="#B9B9B9" transform="translate(94,66)"/>
<path d="M0 0 C3.67420866 0.30618405 4.78135513 0.75771784 7.3125 3.5625 C8.1478125 4.7690625 8.1478125 4.7690625 9 6 C8.01 6.33 7.02 6.66 6 7 C2.8125 4.6875 2.8125 4.6875 0 2 C0 1.34 0 0.68 0 0 Z " fill="#EF9364" transform="translate(53,19)"/>
<path d="M0 0 C3.95820859 0.56545837 6.6659053 1.80902348 10 4 C9.01 4.66 8.02 5.32 7 6 C4.95703125 5.5390625 4.95703125 5.5390625 2.8125 4.625 C1.73935547 4.18027344 1.73935547 4.18027344 0.64453125 3.7265625 C0.10183594 3.48679687 -0.44085938 3.24703125 -1 3 C-0.67 2.01 -0.34 1.02 0 0 Z " fill="#F1A981" transform="translate(45,14)"/>
<path d="M0 0 C0.66 0 1.32 0 2 0 C2 3.3 2 6.6 2 10 C1.34 10 0.68 10 0 10 C0 8.35 0 6.7 0 5 C-1.65 5 -3.3 5 -5 5 C-5 4.67 -5 4.34 -5 4 C-3.35 4 -1.7 4 0 4 C0 2.68 0 1.36 0 0 Z " fill="#B9B9B9" transform="translate(208,66)"/>
<path d="M0 0 C2.125 0.375 2.125 0.375 4 1 C4 1.99 4 2.98 4 4 C2.35 4.66 0.7 5.32 -1 6 C-1.625 4.125 -1.625 4.125 -2 2 C-1.34 1.34 -0.68 0.68 0 0 Z " fill="#626262" transform="translate(172,40)"/>
<path d="M0 0 C4.75 0.75 4.75 0.75 7 3 C6.625 6.125 6.625 6.125 6 9 C5.01 8.34 4.02 7.68 3 7 C3 5.68 3 4.36 3 3 C1.5833253 1.2488427 1.5833253 1.2488427 0 0 Z " fill="#BEBEBE" transform="translate(114,66)"/>
<path d="M0 0 C0.33 0 0.66 0 1 0 C1 1.98 1 3.96 1 6 C0.34 6 -0.32 6 -1 6 C-1.33 6.99 -1.66 7.98 -2 9 C-2.66 9 -3.32 9 -4 9 C-2.25 2.25 -2.25 2.25 0 0 Z " fill="#171717" transform="translate(229,27)"/>
<path d="M0 0 C0 0.66 0 1.32 0 2 C-1.66279327 3.0064275 -3.32983484 4.00585407 -5 5 C-5.66 5.99 -6.32 6.98 -7 8 C-7.33 6.35 -7.66 4.7 -8 3 C-3.375 0 -3.375 0 0 0 Z " fill="#EF8751" transform="translate(60,29)"/>
<path d="M0 0 C3.625 -0.1875 3.625 -0.1875 7 0 C6.67 1.32 6.34 2.64 6 4 C3.36 3.67 0.72 3.34 -2 3 C-1.34 2.01 -0.68 1.02 0 0 Z " fill="#D3D3D3" transform="translate(186,69)"/>
<path d="M0 0 C0.33 0 0.66 0 1 0 C1 1.98 1 3.96 1 6 C-1.31 5.67 -3.62 5.34 -6 5 C-6 4.01 -6 3.02 -6 2 C-4.0625 1.4375 -4.0625 1.4375 -2 1 C-1.67 1.33 -1.34 1.66 -1 2 C-0.67 1.34 -0.34 0.68 0 0 Z " fill="#D4D4D4" transform="translate(171,68)"/>
<path d="M0 0 C1.98 0.66 3.96 1.32 6 2 C4.93453047 4.13093906 3.70840281 5.36587557 2 7 C1.67 6.01 1.34 5.02 1 4 C0.01 4.99 -0.98 5.98 -2 7 C-1.42415568 4.61435923 -0.77772405 2.33317216 0 0 Z " fill="#8C8C8C" transform="translate(228,24)"/>
<path d="M0 0 C0.99 0.33 1.98 0.66 3 1 C3.80967438 3.91482778 4.21845993 5.46113217 3.0625 8.3125 C2.5365625 9.1478125 2.5365625 9.1478125 2 10 C1.01 9.67 0.02 9.34 -1 9 C-0.195625 7.88625 -0.195625 7.88625 0.625 6.75 C1.07875 5.8425 1.5325 4.935 2 4 C1.30859649 1.69712207 1.30859649 1.69712207 0 0 Z " fill="#B3B3B3" transform="translate(193,66)"/>
<path d="M0 0 C2.375 -0.125 2.375 -0.125 5 0 C5.66 0.66 6.32 1.32 7 2 C6.67 2.99 6.34 3.98 6 5 C6 4.34 6 3.68 6 3 C3.58354218 2.83312552 3.58354218 2.83312552 1 3 C0.34 3.66 -0.32 4.32 -1 5 C-0.67 3.35 -0.34 1.7 0 0 Z " fill="#ADADAD" transform="translate(185,66)"/>
<path d="M0 0 C0.33 0.99 0.66 1.98 1 3 C0.01 4.485 0.01 4.485 -1 6 C-2.32 6 -3.64 6 -5 6 C-4.67 4.35 -4.34 2.7 -4 1 C-2.02 1.495 -2.02 1.495 0 2 C0 1.34 0 0.68 0 0 Z " fill="#7E7E7E" transform="translate(224,42)"/>
<path d="M0 0 C0.33 0.99 0.66 1.98 1 3 C0.67 3.66 0.34 4.32 0 5 C1.32 4.01 2.64 3.02 4 2 C3.25 6.75 3.25 6.75 1 9 C0.67 8.34 0.34 7.68 0 7 C-0.66 7 -1.32 7 -2 7 C-1.34 4.69 -0.68 2.38 0 0 Z " fill="#8E8E8E" transform="translate(225,31)"/>
<path d="M0 0 C1.1446875 0.2784375 1.1446875 0.2784375 2.3125 0.5625 C5.08967375 1.22819173 5.08967375 1.22819173 8 0 C8 0.99 8 1.98 8 3 C2.25 4.125 2.25 4.125 0 3 C0 2.01 0 1.02 0 0 Z " fill="#ADADAD" transform="translate(232,72)"/>
<path d="M0 0 C-1.15173355 2.46800047 -2.04783565 4.04783565 -4 6 C-4.99 6 -5.98 6 -7 6 C-5.52522876 2.59668175 -4.14385429 0 0 0 Z " fill="#EF8F60" transform="translate(60,64)"/>
<path d="M0 0 C2.31 0.33 4.62 0.66 7 1 C7 1.66 7 2.32 7 3 C4.03 3 1.06 3 -2 3 C-1.34 2.01 -0.68 1.02 0 0 Z " fill="#ED7635" transform="translate(34,72)"/>
<path d="M0 0 C0.66 0 1.32 0 2 0 C4.1875 2.3125 4.1875 2.3125 6 5 C5.67 5.99 5.34 6.98 5 8 C2.5 5.6875 2.5 5.6875 0 3 C0 2.01 0 1.02 0 0 Z " fill="#EF8D60" transform="translate(12,61)"/>
<path d="M0 0 C0.99 0.33 1.98 0.66 3 1 C3 1.66 3 2.32 3 3 C0.59454362 4.20272819 -0.94996953 4.10071472 -3.625 4.0625 C-4.85089844 4.04896484 -4.85089844 4.04896484 -6.1015625 4.03515625 C-7.04128906 4.01775391 -7.04128906 4.01775391 -8 4 C-8 3.67 -8 3.34 -8 3 C-5.36 2.67 -2.72 2.34 0 2 C0 1.34 0 0.68 0 0 Z " fill="#141414" transform="translate(168,43)"/>
<path d="M0 0 C3.125 0.375 3.125 0.375 6 1 C4.68 1.99 3.36 2.98 2 4 C0.68 3.34 -0.64 2.68 -2 2 C-1.34 1.34 -0.68 0.68 0 0 Z " fill="#F1A880" transform="translate(49,69)"/>
<path d="M0 0 C-0.33 0.66 -0.66 1.32 -1 2 C-4.0625 2.625 -4.0625 2.625 -7 3 C-7.33 2.01 -7.66 1.02 -8 0 C-4.71023192 -1.09658936 -3.28696233 -0.79953138 0 0 Z " fill="#F1A981" transform="translate(53,35)"/>
<path d="M0 0 C2.31 0.33 4.62 0.66 7 1 C6.67 1.99 6.34 2.98 6 4 C3.69 3.34 1.38 2.68 -1 2 C-0.67 1.34 -0.34 0.68 0 0 Z " fill="#080808" transform="translate(162,17)"/>
<path d="M0 0 C3.35595828 0.59927826 5.37801226 1.84622436 8 4 C5.69 3.67 3.38 3.34 1 3 C0.67 2.01 0.34 1.02 0 0 Z " fill="#EF9262" transform="translate(28,68)"/>
</svg>
